<mxfile host="app.diagrams.net" agent="Mozilla/5.0 (Windows NT 10.0; Win64; x64) AppleWebKit/537.36 (KHTML, like Gecko) Chrome/130.0.0.0 Safari/537.36" version="24.8.2">
  <diagram name="Сторінка-1" id="l0vV5kEsV1ljEQD_1CdX">
    <mxGraphModel dx="794" dy="454" grid="1" gridSize="10" guides="1" tooltips="1" connect="1" arrows="1" fold="1" page="1" pageScale="1" pageWidth="827" pageHeight="1169" math="0" shadow="0">
      <root>
        <mxCell id="0" />
        <mxCell id="1" parent="0" />
        <mxCell id="ebnDAZGUXR2FUlLxdjSV-6" value="" style="edgeStyle=orthogonalEdgeStyle;rounded=0;orthogonalLoop=1;jettySize=auto;html=1;" edge="1" parent="1" source="ebnDAZGUXR2FUlLxdjSV-1" target="ebnDAZGUXR2FUlLxdjSV-3">
          <mxGeometry relative="1" as="geometry" />
        </mxCell>
        <mxCell id="ebnDAZGUXR2FUlLxdjSV-1" value="Start" style="ellipse;whiteSpace=wrap;html=1;" vertex="1" parent="1">
          <mxGeometry x="170" y="10" width="120" height="80" as="geometry" />
        </mxCell>
        <mxCell id="ebnDAZGUXR2FUlLxdjSV-2" value="End" style="ellipse;whiteSpace=wrap;html=1;" vertex="1" parent="1">
          <mxGeometry x="170" y="390" width="120" height="80" as="geometry" />
        </mxCell>
        <mxCell id="ebnDAZGUXR2FUlLxdjSV-7" value="" style="edgeStyle=orthogonalEdgeStyle;rounded=0;orthogonalLoop=1;jettySize=auto;html=1;" edge="1" parent="1" source="ebnDAZGUXR2FUlLxdjSV-3" target="ebnDAZGUXR2FUlLxdjSV-4">
          <mxGeometry relative="1" as="geometry" />
        </mxCell>
        <mxCell id="ebnDAZGUXR2FUlLxdjSV-3" value="Input n , m" style="shape=parallelogram;perimeter=parallelogramPerimeter;whiteSpace=wrap;html=1;fixedSize=1;" vertex="1" parent="1">
          <mxGeometry x="170" y="120" width="120" height="60" as="geometry" />
        </mxCell>
        <mxCell id="ebnDAZGUXR2FUlLxdjSV-9" value="" style="edgeStyle=orthogonalEdgeStyle;rounded=0;orthogonalLoop=1;jettySize=auto;html=1;" edge="1" parent="1" source="ebnDAZGUXR2FUlLxdjSV-4" target="ebnDAZGUXR2FUlLxdjSV-5">
          <mxGeometry relative="1" as="geometry" />
        </mxCell>
        <mxCell id="ebnDAZGUXR2FUlLxdjSV-4" value="c1 = --m - ++n&lt;div&gt;c2 = m*n &amp;lt; n++&lt;/div&gt;&lt;div&gt;c3 = n-- &amp;gt; m++&lt;/div&gt;" style="rounded=0;whiteSpace=wrap;html=1;" vertex="1" parent="1">
          <mxGeometry x="170" y="210" width="120" height="60" as="geometry" />
        </mxCell>
        <mxCell id="ebnDAZGUXR2FUlLxdjSV-10" value="" style="edgeStyle=orthogonalEdgeStyle;rounded=0;orthogonalLoop=1;jettySize=auto;html=1;" edge="1" parent="1" source="ebnDAZGUXR2FUlLxdjSV-5" target="ebnDAZGUXR2FUlLxdjSV-2">
          <mxGeometry relative="1" as="geometry" />
        </mxCell>
        <mxCell id="ebnDAZGUXR2FUlLxdjSV-5" value="Output c1, c2, c3" style="shape=parallelogram;perimeter=parallelogramPerimeter;whiteSpace=wrap;html=1;fixedSize=1;" vertex="1" parent="1">
          <mxGeometry x="170" y="300" width="120" height="60" as="geometry" />
        </mxCell>
      </root>
    </mxGraphModel>
  </diagram>
</mxfile>
